<svg xmlns="http://www.w3.org/2000/svg" viewBox="0 0 66.41 51.41"><defs><style>.cls-1{fill:#ea5e5c;}</style></defs><title>Asset 2</title><g id="Layer_2" data-name="Layer 2"><g id="Layer_1-2" data-name="Layer 1"><path class="cls-1" d="M33.19,9.77c.91-1.2,1.72-2.44,2.7-3.54A17.25,17.25,0,0,1,50,0c9.58.36,15.1,7,16.21,14.63a19.77,19.77,0,0,1-3.68,14.49A50.07,50.07,0,0,1,52.27,39.68,104.31,104.31,0,0,1,33.79,51.25a1,1,0,0,1-1,0,99.32,99.32,0,0,1-21.45-14,37,37,0,0,1-9-11c-3.34-6.65-3-13.2,1.06-19.41A15.2,15.2,0,0,1,14.46.21,17.37,17.37,0,0,1,25.05,1.86,19.51,19.51,0,0,1,33,9.4l.18.29A.81.81,0,0,0,33.19,9.77Z"/></g></g></svg>