<svg xmlns="http://www.w3.org/2000/svg" viewBox="0 0 6.6 5.11"><defs><style>.cls-1{fill:#ea5e5c;}</style></defs><title>heartIcon x 01</title><g id="Layer_2" data-name="Layer 2"><g id="Layer_1-2" data-name="Layer 1"><path class="cls-1" d="M3.3,1c.09-.12.17-.24.27-.35A1.71,1.71,0,0,1,5,0,1.63,1.63,0,0,1,6.58,1.46a1.92,1.92,0,0,1-.37,1.43,4.62,4.62,0,0,1-1,1A9.89,9.89,0,0,1,3.36,5.09s-.06,0-.1,0A9.8,9.8,0,0,1,1.13,3.7a3.5,3.5,0,0,1-.9-1.09A1.82,1.82,0,0,1,.33.68,1.53,1.53,0,0,1,1.44,0,1.8,1.8,0,0,1,2.49.18a1.88,1.88,0,0,1,.78.75l0,0Z"/></g></g></svg>