<svg xmlns="http://www.w3.org/2000/svg" viewBox="0 0 50.85 50.86"><defs><style>.cls-1{fill:#754741;}.cls-2{fill:none;stroke:#754741;stroke-miterlimit:10;}</style></defs><title>leftDownTool (7)</title><g id="Layer_2" data-name="Layer 2"><g id="main"><g id="leftDownTool"><g id="CompassTool"><path class="cls-1" d="M8.33,44.28,6.57,42.52a1.43,1.43,0,0,0-.14-.2c-.38-.46-.77-.9-1.13-1.37a24.66,24.66,0,0,1-4.62-9.7A25.29,25.29,0,0,1,1.87,15.88,24.52,24.52,0,0,1,5.61,9.52l1-1.18L8.33,6.58a1.28,1.28,0,0,0,.21-.14,22.88,22.88,0,0,1,4-2.89A25.2,25.2,0,0,1,34.57,1.73a23.41,23.41,0,0,1,6.76,3.9l1.18,1,1.76,1.76a1.88,1.88,0,0,0,.16.23c.77,1,1.64,2,2.31,3a25.07,25.07,0,0,1,2.42,22.86,23.26,23.26,0,0,1-3.93,6.87l-1,1.17-1.76,1.76a.47.47,0,0,0-.12.07c-.42.35-.82.72-1.25,1a24.68,24.68,0,0,1-6.46,3.7,25.27,25.27,0,0,1-18.39,0,24,24,0,0,1-6.8-3.93ZM40.9,40.94a21.91,21.91,0,1,0-31,0A21.93,21.93,0,0,0,40.9,40.94Z"/><path class="cls-1" d="M30.09,25.51a1.09,1.09,0,0,1,0,.44h-2l-5.32,0h-2a1.34,1.34,0,0,1,0-.63q2.3-9.12,4.62-18.24c0-.09.05-.17.09-.33.05.14.07.21.09.28Q27.83,16.3,30.09,25.51Z"/><path class="cls-2" d="M30.08,26Q28,35,25.82,44.1a1.66,1.66,0,0,1-.06.21h-.05c-.28-1-.56-2-.83-3L20.77,26a1.34,1.34,0,0,1,0-.63q2.3-9.12,4.62-18.24c0-.09.05-.17.09-.33.05.14.07.21.09.28q2.26,9.21,4.52,18.42A1.09,1.09,0,0,1,30.08,26Z"/></g></g></g></g></svg>