<svg xmlns="http://www.w3.org/2000/svg" viewBox="0 0 47.91 44.05"><defs><style>.cls-1{fill:#754741;}</style></defs><title>leftDownTool (5)</title><g id="Layer_2" data-name="Layer 2"><g id="main"><g id="leftDownTool"><g id="ShareIcon"><path class="cls-1" d="M0,32.58c.05-.51.09-1,.14-1.53a23.6,23.6,0,0,1,3.25-9.79A23,23,0,0,1,14.5,11.58,20.33,20.33,0,0,1,21.05,10c1.25-.09,2.5-.05,3.76-.07H25V9.64c0-2.41,0-4.81,0-7.21a3.53,3.53,0,0,1,.21-1.25,1.79,1.79,0,0,1,2.53-1,3.71,3.71,0,0,1,.84.53L46.69,15.21a2.93,2.93,0,0,1,1.18,1.91l0,.06v.63c0,.15-.07.3-.11.45a3.06,3.06,0,0,1-1,1.5L31.66,31.83l-3.15,2.51a2.89,2.89,0,0,1-1.2.63,1.83,1.83,0,0,1-2.22-1.47,4.31,4.31,0,0,1-.09-1q0-3.37,0-6.74v-.35H23.37a20.65,20.65,0,0,0-19.06,12,33.75,33.75,0,0,0-1.77,5c-.15.51-.3,1-.46,1.54L2,44C1.53,42.28,1,40.6.58,38.9A19.6,19.6,0,0,1,0,35a2.7,2.7,0,0,0,0-.28ZM27.17,12.12c-.65,0-1.29,0-1.92,0a27.49,27.49,0,0,0-5.87.28,19.79,19.79,0,0,0-8.95,4.08A21.5,21.5,0,0,0,2.19,34.38c0,.68.09,1.37.14,2h.06l.16-.32A23,23,0,0,1,14,25.17a20.92,20.92,0,0,1,7.65-1.83c1.55-.06,3.1,0,4.64,0,.3,0,.6,0,.92,0v9.22l.23-.17,7.84-6.28,10.12-8.09c.5-.4.5-.75,0-1.15l-18-14.4-.2-.13Z"/></g></g></g></g></svg>