<svg xmlns="http://www.w3.org/2000/svg" viewBox="0 0 45.61 35.87"><defs><style>.cls-1{fill:none;stroke:#fff;stroke-miterlimit:10;stroke-width:2.5px;}</style></defs><title>leftDownTool (4)</title><g id="Layer_2" data-name="Layer 2"><g id="main"><g id="leftDownTool"><g id="FavoriteTool"><path id="heartIcon" class="cls-1" d="M22.8,7.59c.58-.78,1.11-1.58,1.75-2.3a11.21,11.21,0,0,1,9.16-4,10.63,10.63,0,0,1,10.52,9.5,12.82,12.82,0,0,1-2.39,9.4A32.24,32.24,0,0,1,35.18,27a67.77,67.77,0,0,1-12,7.52.67.67,0,0,1-.66,0A64.28,64.28,0,0,1,8.61,25.43a24,24,0,0,1-5.88-7.12,11.88,11.88,0,0,1,.69-12.6,9.83,9.83,0,0,1,7.22-4.32,11.38,11.38,0,0,1,6.87,1.06,12.8,12.8,0,0,1,5.13,4.9l.12.19Z"/></g></g></g></g></svg>