<svg xmlns="http://www.w3.org/2000/svg" viewBox="0 0 47.59 47.11"><defs><style>.cls-1{fill:#fff;}</style></defs><title>leftDownTool (12)</title><g id="Layer_2" data-name="Layer 2"><g id="main"><g id="leftDownTool"><g id="TrackTool"><path class="cls-1" d="M46.42,7.61C49,15,47.75,22.22,44.93,29.17c-.36.88-2.26,1.62-3.32,1.44-3.25-.53-6.1-.83-9.32-1.58-1-.23-2.5-1.46-2.55-2.3-.43-8,2-16.39,7.9-21.79a8.55,8.55,0,0,1,.94-.65C42,2.43,45,3.61,46.42,7.61Z" transform="translate(-0.25 -0.25)"/><path class="cls-1" d="M37.33,33.45C42.59,34.76,43.57,37,41,42.18a23.17,23.17,0,0,1-2.86,3.88c-4.13,2.25-6.17,1.6-7.68-2.17a14.63,14.63,0,0,1-.95-5.22c0-5.1.58-7.07,5.16-5.91Z" transform="translate(-0.25 -0.25)"/><path class="cls-1" d="M12.58,2.76c4.79,6.19,5.56,13.6,4.67,21.29a3.66,3.66,0,0,1-2.52,2.38,70.61,70.61,0,0,1-10.47.94,3.59,3.59,0,0,1-2.8-2C-.31,18-.42,10.71,3,3.77a8.25,8.25,0,0,1,1-1.35C6.81-.56,10.07-.5,12.58,2.76Z" transform="translate(-0.25 -0.25)"/><path class="cls-1" d="M16.89,32.07A10.41,10.41,0,0,1,16,42c-.29.46-.61.89-.78,1.13C12.42,46,8.51,45.7,6.27,42.55a13.42,13.42,0,0,1-2-4.48C3,32.74,3.91,31.46,8.92,31a10.25,10.25,0,0,1,1.54-.14C12.67,31.05,15.55,29,16.89,32.07Z" transform="translate(-0.25 -0.25)"/></g></g></g></g></svg>