<svg xmlns="http://www.w3.org/2000/svg" viewBox="0 0 75.82 75.82"><defs><style>.cls-1{fill:#188ab5;stroke:#fff;stroke-miterlimit:10;opacity:0.8;}.cls-2{fill:#fff;}</style></defs><title>leftBarIcon</title><g id="Layer_2" data-name="Layer 2"><g id="main"><g id="leftBarIcon"><rect class="cls-1" x="0.5" y="0.5" width="74.82" height="74.82" rx="12" ry="12"/><path class="cls-2" d="M61,26.64H14.85a2,2,0,0,1-1.94-2h0a2,2,0,0,1,1.94-2H61a2,2,0,0,1,1.94,2h0A2,2,0,0,1,61,26.64Z"/><path class="cls-2" d="M61,40.35H14.85a2,2,0,0,1-1.94-2h0a2,2,0,0,1,1.94-2H61a2,2,0,0,1,1.94,2h0A2,2,0,0,1,61,40.35Z"/><path class="cls-2" d="M61,54.06H14.85a2,2,0,0,1-1.94-2h0a2,2,0,0,1,1.94-2H61a2,2,0,0,1,1.94,2h0A2,2,0,0,1,61,54.06Z"/></g></g></g></svg>