<svg xmlns="http://www.w3.org/2000/svg" viewBox="0 0 181.57 33.76"><defs><style>.cls-1{font-size:19.48px;font-family:MeiryoUI, Meiryo UI;}.cls-1,.cls-5{fill:#754741;}.cls-2{letter-spacing:-0.01em;}.cls-3{letter-spacing:-0.01em;}.cls-4{letter-spacing:-0.01em;}.cls-6{fill:#fff;}</style></defs><title>leftDownTool (8)</title><g id="Layer_2" data-name="Layer 2"><g id="main"><g id="leftDownTool"><g id="toggle"><g id="toggle_-_diary" data-name="toggle - diary"><text class="cls-1" transform="translate(68.22 25.19)">t<tspan class="cls-2" x="7.38" y="0">r</tspan><tspan class="cls-3" x="15.15" y="0">a</tspan><tspan class="cls-4" x="26.32" y="0">v</tspan><tspan x="37.19" y="0">el mode</tspan></text><path class="cls-5" d="M31.56,27c-6.13,0-12.26.08-18.38,0A13.46,13.46,0,0,1,9.58.65,15.79,15.79,0,0,1,14,0Q31.55,0,49.08,0c8,0,14,5.88,14,13.54S57,27,49,27c-5.81,0-11.63,0-17.44,0Z"/><path class="cls-6" d="M49.62,4.52a9,9,0,1,1-9.06,8.86A9,9,0,0,1,49.62,4.52Z"/></g></g></g></g></g></svg>