<svg xmlns="http://www.w3.org/2000/svg" viewBox="0 0 50.09 49.61"><defs><style>.cls-1{fill:#754741;}.cls-2{fill:none;stroke:#754741;stroke-miterlimit:10;stroke-width:2.5px;}</style></defs><title>leftDownTool (12)</title><g id="Layer_2" data-name="Layer 2"><g id="main"><g id="leftDownTool"><g id="TrackTool"><path class="cls-1" d="M47.41,8.61C50,16,48.75,23.22,45.92,30.17c-.35.88-2.25,1.62-3.31,1.44-3.25-.52-6.1-.83-9.32-1.58-1-.23-2.51-1.45-2.55-2.3-.43-8,2-16.39,7.9-21.78a7.52,7.52,0,0,1,.93-.66C43,3.44,46,4.61,47.41,8.61Z"/><path class="cls-1" d="M38.33,34.45C43.58,35.76,44.57,38,42,43.18a23.15,23.15,0,0,1-2.87,3.89c-4.12,2.24-6.17,1.59-7.67-2.18a14.63,14.63,0,0,1-.95-5.22c0-5.1.58-7.07,5.15-5.9Z"/><path class="cls-1" d="M13.58,3.76c4.78,6.19,5.56,13.6,4.67,21.29a3.68,3.68,0,0,1-2.52,2.38,70.85,70.85,0,0,1-10.47.94,3.59,3.59,0,0,1-2.8-2C.69,19,.58,11.71,4,4.78a8,8,0,0,1,1-1.36C7.8.45,11.06.5,13.58,3.76Z"/><path class="cls-1" d="M17.89,33.07A10.41,10.41,0,0,1,17,43c-.29.46-.61.89-.78,1.13C13.42,47,9.51,46.7,7.27,43.56a13.56,13.56,0,0,1-2-4.49C4,33.74,4.91,32.46,9.92,32a9.12,9.12,0,0,1,1.54-.15C13.66,32.05,16.54,30,17.89,33.07Z"/><path class="cls-2" d="M5.05,3.42A8,8,0,0,0,4,4.78C.58,11.71.69,19,2.46,26.37a3.59,3.59,0,0,0,2.8,2,70.85,70.85,0,0,0,10.47-.94,3.68,3.68,0,0,0,2.52-2.38c.89-7.69.11-15.1-4.67-21.29C11.06.5,7.8.45,5.05,3.42Z"/><path class="cls-2" d="M39.57,5.29a7.52,7.52,0,0,0-.93.66c-5.93,5.39-8.33,13.81-7.9,21.78,0,.85,1.56,2.07,2.55,2.3,3.22.75,6.07,1.06,9.32,1.58,1.06.18,3-.56,3.31-1.44C48.75,23.22,50,16,47.41,8.61,46,4.61,43,3.44,39.57,5.29Z"/><path class="cls-2" d="M39.08,47.07A23.15,23.15,0,0,0,42,43.18c2.62-5.22,1.63-7.42-3.62-8.73l-2.72-.68c-4.57-1.17-5.12.8-5.15,5.9a14.63,14.63,0,0,0,.95,5.22C32.91,48.66,35,49.31,39.08,47.07Z"/><path class="cls-2" d="M16.18,44.14c.17-.24.49-.67.78-1.13a10.41,10.41,0,0,0,.93-9.94c-1.35-3.11-4.23-1-6.43-1.23A9.12,9.12,0,0,0,9.92,32c-5,.47-5.91,1.75-4.64,7.08a13.56,13.56,0,0,0,2,4.49C9.51,46.7,13.42,47,16.18,44.14Z"/></g></g></g></g></svg>