<svg xmlns="http://www.w3.org/2000/svg" viewBox="0 0 169.77 34.69"><defs><style>.cls-1,.cls-3{fill:#754741;}.cls-2{fill:#fff;}.cls-3{font-size:19.48px;font-family:MeiryoUI, Meiryo UI;}</style></defs><title>leftDownTool (10)</title><g id="Layer_2" data-name="Layer 2"><g id="main"><g id="leftDownTool"><g id="toggle"><g id="toggle_-_map" data-name="toggle - map"><path class="cls-1" d="M31.36,27c-6.06,0-12.13.08-18.19,0A13.46,13.46,0,0,1,9.59.65,15.74,15.74,0,0,1,14,0Q31.56,0,49.09,0c8,0,14,5.89,14,13.55S57,27,49.18,27c-5.94,0-11.88,0-17.82,0ZM22.54,13.44a9,9,0,1,0-8.83,9.08A9,9,0,0,0,22.54,13.44Z"/><path class="cls-2" d="M22.54,13.44a9,9,0,1,1-9-8.92A9,9,0,0,1,22.54,13.44Z"/><text class="cls-3" transform="translate(67.96 26.12)">map mode</text></g></g></g></g></g></svg>