<svg xmlns="http://www.w3.org/2000/svg" viewBox="0 0 32.73 32.55"><defs><style>.cls-1{fill:#754741;}</style></defs><title>leftDownTool (2)</title><g id="Layer_2" data-name="Layer 2"><g id="main"><g id="leftDownTool"><g id="avatarIcon"><path class="cls-1" d="M32.73,31.44a1.45,1.45,0,0,1-.46.79,1.25,1.25,0,0,1-1.34.21,1.31,1.31,0,0,1-.82-1.11A8.79,8.79,0,0,0,29.78,30a13.75,13.75,0,0,0-9.69-9.43A14,14,0,0,0,2.73,30.81c0,.23-.09.47-.14.71A1.31,1.31,0,0,1,0,31,20.62,20.62,0,0,1,.78,28.3a16.48,16.48,0,0,1,4.78-6.83,16.31,16.31,0,0,1,5.16-3l.14-.06A9.93,9.93,0,0,1,6.36,10,9.66,9.66,0,0,1,9.27,3a10,10,0,0,1,14.15,0A10,10,0,0,1,26.32,11a9.86,9.86,0,0,1-1.39,4.18,10.16,10.16,0,0,1-3.07,3.19c.44.18.87.34,1.28.52a16.54,16.54,0,0,1,8.41,8.43,15.32,15.32,0,0,1,1.08,3.36c0,.12.07.23.1.34Zm-16.37-14A7.46,7.46,0,1,0,8.91,10,7.47,7.47,0,0,0,16.36,17.47Z"/></g></g></g></g></svg>