<svg xmlns="http://www.w3.org/2000/svg" viewBox="0 0 84.08 84.08"><defs><style>.cls-1{fill:#fff;stroke:#754741;stroke-miterlimit:10;opacity:0.9;}.cls-2{fill:#754741;}</style></defs><title>PlusTools (4)</title><g id="Layer_2" data-name="Layer 2"><g id="main"><g id="PlusTools"><g id="pictureIcon"><circle class="cls-1" cx="42.04" cy="42.04" r="41.54"/><path class="cls-2" d="M67,58.76a4.43,4.43,0,0,1-4.68,4.62c-6.77-.07-13.54,0-20.32,0H21.73c-3.06,0-4.68-1.61-4.68-4.66q0-15.33,0-30.66c0-3,1.59-4.63,4.59-4.63,13.58,0,27.16,0,40.73,0A4.42,4.42,0,0,1,67,28Q66.91,43.39,67,58.76Zm-3.23-.22V28.27c0-1.41-.21-1.62-1.58-1.62H21.79c-1.33,0-1.55.21-1.55,1.55V58.57c0,1.31.2,1.51,1.49,1.51H62.25C63.62,60.08,63.81,59.89,63.81,58.54Z"/><path class="cls-2" d="M60.31,45.53c0,3.54,0,7.08,0,10.62a3.59,3.59,0,0,1-.07.49H23.76c0-1.63,0-3.24,0-4.85,0-.15.19-.31.32-.43l7.85-7.89,4.1,4.2L49.44,34.13C51.31,36,53,37.7,54.65,39.36s3.46,3.43,5.15,5.17A1.62,1.62,0,0,1,60.31,45.53Z"/><path class="cls-2" d="M28.66,30.1A4.94,4.94,0,1,1,23.73,35,4.84,4.84,0,0,1,28.66,30.1Z"/></g></g></g></g></svg>