<svg xmlns="http://www.w3.org/2000/svg" viewBox="0 0 84.08 84.08"><defs><style>.cls-1{fill:#fff;stroke:#754741;stroke-miterlimit:10;opacity:0.9;}.cls-2{fill:#f3a08c;}.cls-3{fill:#754741;}</style></defs><title>PlusTools (3)</title><g id="Layer_2" data-name="Layer 2"><g id="main"><g id="PlusTools"><g id="penIcon"><circle class="cls-1" cx="42.04" cy="42.04" r="41.54"/><g id="penIcon-2" data-name="penIcon"><path class="cls-2" d="M32.55,56l16.39-27.7c-2.12-1.26-4.16-2.38-6.11-3.65-.93-.6-1.35-.5-1.91.46-4.47,7.64-9,15.25-13.5,22.87-.68,1.14-1.35,2.28-2.07,3.51C28.62,51.58,30.64,53.5,32.55,56ZM23.62,62.1l.29.14,7-4.62c-1.82-3.08-4.17-4.39-6.45-3.64Z"/><path class="cls-3" d="M47,15.21l7,4.28L50.7,25.12l-7.25-4.29,3.08-5.62Z"/><path class="cls-3" d="M32.55,56c-1.91-2.46-3.93-4.38-7.2-4.51.72-1.23,1.39-2.37,2.07-3.51,4.5-7.62,9-15.23,13.5-22.87.56-1,1-1.06,1.91-.46,2,1.27,4,2.39,6.11,3.65Z"/><path class="cls-3" d="M23.62,62.1,24.5,54c2.28-.75,4.63.56,6.45,3.64l-7,4.62Z"/><path class="cls-3" d="M40.76,67.46c-3.36,0-8.56-.31-15.47-.94a1.74,1.74,0,0,1-1.58-1.9h0A1.74,1.74,0,0,1,25.61,63c6.92.62,11.3.86,14.06.91-2.85-1.15-4.94-2.21-4.7-4.2.19-1.67.43-3.74,28.1-3.51A1.75,1.75,0,0,1,64.81,58h0A1.75,1.75,0,0,1,63,59.74c-10.92-.07-18.69.27-22.54.77l1.64.66c3.19,1.25,5.31,2.08,5,4.09s-2.89,2.19-6.16,2.2Z"/></g></g></g></g></g></svg>