<svg xmlns="http://www.w3.org/2000/svg" viewBox="0 0 122.95 58.73"><title>Asset 5</title><g id="Layer_2" data-name="Layer 2"><g id="Layer_1-2" data-name="Layer 1"><path d="M71.83,58.69c-9,0-18,.05-27.06,0-10-.06-17.52-6.47-18.84-15.89-1.31-9.24,4.53-17.54,14-20.42a7.59,7.59,0,0,0,4.26-3.74C52.61-1.16,76.8-6.22,92.47,8.49a10.12,10.12,0,0,0,6.27,2.42c13.47.2,24.1,10.42,24.21,23.66a23.54,23.54,0,0,1-23.6,24.09C90.18,58.79,81,58.69,71.83,58.69ZM47.22,21.76C49.27,22.61,51,23,52.28,24a21,21,0,0,1,3.27,3.73c-1.56-.07-3.32.29-4.65-.3-5.93-2.61-11.36-2-16.29,2.09a14.2,14.2,0,0,0-4.23,15.44c2.18,6,6.63,9.86,13,10,19,.26,37.93.36,56.89,0,9.77-.21,17.13-7.56,18.69-17.18A19.93,19.93,0,0,0,107,16.5c-8-3.31-15.22-1.75-21.75,3.84-.83.71-2.31.67-3.48,1,.32-1.28.23-3,1-3.76A82.64,82.64,0,0,1,90.32,12c-6.86-6.74-14.73-9.53-24-7.53C57,6.49,50.79,12.36,47.22,21.76Z"/><path d="M16.09,24.59a8.22,8.22,0,0,1,1.89,1c1,1.1,2,2.3,2.94,3.46-1.43.05-3,.52-4.27.06-3.87-1.45-7.74-1.23-10,2.06a14.07,14.07,0,0,0-2.11,9.13c.59,3.93,4.11,5.86,8.14,6.13,2.44.16,4.91-.09,7.32.2.9.11,1.67,1.25,2.5,1.92-.78.57-1.54,1.59-2.33,1.61a50.17,50.17,0,0,1-10-.26A12.43,12.43,0,0,1,0,38.43c-.44-5.79,2.79-10.6,8.13-13.11a11.51,11.51,0,0,0,4.94-4.53c5-9,15.82-13.38,25.07-9.58,1.21.49,1.93,2.16,2.88,3.29-1.34.09-2.8.56-4,.21C27.61,12,19.52,15.6,16.09,24.59Z"/></g></g></svg>