<svg xmlns="http://www.w3.org/2000/svg" viewBox="0 0 97.2 84.07"><defs><style>.cls-1{fill:#fff;}</style></defs><title>WeatherIcon5</title><g id="Layer_2" data-name="Layer 2"><g id="Layer_1-2" data-name="Layer 1"><path class="cls-1" d="M45.94,58.88c-8.87,0-17.74.06-26.61,0C8.86,58.75,1.24,52.09.12,42.23c-1-9.18,4.93-17.1,14.69-19.87a6,6,0,0,0,3.41-3c9.37-21.1,32.63-25.82,49.28-10a7.33,7.33,0,0,0,4.74,1.69c13.94-.1,24.68,9.82,25,23.26.28,13.74-10,24.29-24.2,24.52C64,59,55,58.89,45.94,58.88ZM21.56,21.69c2.82,1.39,5.09,2.33,7.13,3.61.63.4.67,1.74,1,2.65a9.15,9.15,0,0,1-2.83.46c-.85-.12-1.58-.89-2.43-1.24-5.79-2.38-11.17-1.55-15.78,2.64S3,39.17,4.64,44.92A13.62,13.62,0,0,0,17.18,54.8c19.44.17,38.89.39,58.32-.12,11.31-.3,19.68-11.86,17.67-23-2.85-15.67-20.43-21.94-33-11.85-1.08.86-2.76,1-4.17,1.42.61-1.48.84-3.34,1.9-4.35,1.9-1.84,4.3-3.17,6.77-4.91C57.41,5.14,49.39,2.38,40,4.68,30.81,6.92,24.85,12.75,21.56,21.69Z"/><path class="cls-1" d="M47.94,81.4c2.48-5.87,4.82-11.51,7.33-17.09a2.37,2.37,0,0,1,2.27-.57A2.46,2.46,0,0,1,58.39,66q-3.14,8.13-6.64,16.12a2.6,2.6,0,0,1-2.15,1.14C49,83.15,48.52,82.09,47.94,81.4Z"/><path class="cls-1" d="M27.73,84.07c-.44-1.5-1.29-2.77-1-3.6,2-5.25,4.13-10.44,6.41-15.56.31-.7,1.61-1,2.46-1.43.37.74,1.25,1.66,1.05,2.18-2.18,5.65-4.51,11.25-6.87,16.84C29.6,83,28.9,83.2,27.73,84.07Z"/><path class="cls-1" d="M63.64,75.54c-.4-1.08-1.27-2.21-1-3a59.06,59.06,0,0,1,3.32-7.93,2.84,2.84,0,0,1,2.19-1.08c.42,0,1.36,1.2,1.23,1.54-1.19,3.23-2.55,6.41-3.93,9.57C65.3,75,64.67,75.05,63.64,75.54Z"/><path class="cls-1" d="M20.14,75.55c-.37-1.1-1.18-2.22-.93-3a59.77,59.77,0,0,1,3.26-8,2.82,2.82,0,0,1,2.18-1c.42,0,1.34,1.19,1.22,1.53-1.2,3.23-2.55,6.4-3.93,9.55C21.81,75,21.18,75.05,20.14,75.55Z"/><path class="cls-1" d="M41.94,75.54c-.4-1.06-1.27-2.17-1-2.92a58.28,58.28,0,0,1,3.25-7.94,3,3,0,0,1,2.18-1.14c.37,0,1.32,1.17,1.19,1.52-1.15,3.24-2.47,6.41-3.81,9.57C43.59,74.94,43,75,41.94,75.54Z"/></g></g></svg>