<svg xmlns="http://www.w3.org/2000/svg" viewBox="0 0 45.51 47.24"><defs><style>.cls-1{fill:#754741;}</style></defs><title>leftDownTool (3)</title><g id="Layer_2" data-name="Layer 2"><g id="main"><g id="leftDownTool"><g id="WeatherTool"><g id="sunIcon"><path class="cls-1" d="M33.7,23.58A11,11,0,0,1,22.54,34.77,11,11,0,0,1,11.35,23.61a11.18,11.18,0,1,1,22.35,0Zm-2.26.09a9.08,9.08,0,0,0-8.92-9,9,9,0,0,0-8.9,8.68,9,9,0,0,0,8.76,9.11A9.06,9.06,0,0,0,31.44,23.67Z"/><path class="cls-1" d="M15,11.11c-.42.56-.65,1.14-.94,1.17a1.8,1.8,0,0,1-1.43-.42C11.14,10,9.73,8,8.4,6a1.68,1.68,0,0,1,.11-1.44c.14-.24,1-.39,1.16-.23C11.47,6.55,13.19,8.8,15,11.11Z"/><path class="cls-1" d="M43.77,15.46c.35.21,1.14.46,1.14.71,0,.53-.28,1.38-.67,1.52-2.24.86-4.53,1.61-6.84,2.25-.42.12-1-.44-1.56-.68.3-.5.49-1.29.92-1.45C39,17,41.3,16.27,43.77,15.46Z"/><path class="cls-1" d="M8.94,43.2c-.23-.66-.83-1.52-.61-1.86,1.41-2.16,3-4.22,4.57-6.25.2-.25,1-.2,1.44,0a1.25,1.25,0,0,1,.24,1.19c-1.52,2.2-3.12,4.33-4.71,6.48C9.77,42.89,9.55,42.92,8.94,43.2Z"/><path class="cls-1" d="M31,12.64c-.23-.62-.72-1.34-.54-1.62,1.46-2.22,3-4.38,4.63-6.51a1.2,1.2,0,0,1,1.18-.12c.33.32.68,1.1.52,1.35-1.44,2.14-3,4.22-4.51,6.29C32.1,12.28,31.65,12.34,31,12.64Z"/><path class="cls-1" d="M45.51,30.91c-.91.3-1.57.77-2.07.64-2.24-.61-4.47-1.32-6.65-2.14-.44-.16-.64-.95-.95-1.45.43-.27.95-.83,1.28-.74,2.42.68,4.81,1.48,7.18,2.31C44.66,29.65,44.87,30.16,45.51,30.91Z"/><path class="cls-1" d="M31,34.21a12.28,12.28,0,0,1,1.6,1.34c1.32,1.77,2.67,3.54,3.85,5.4.27.43-.08,1.25-.15,1.88-.55-.17-1.32-.17-1.62-.55a58.13,58.13,0,0,1-4-5.61C30.4,36.23,30.85,35.33,31,34.21Z"/><path class="cls-1" d="M9.82,28.06c-.92.78-1.26,1.27-1.72,1.43-2.11.74-4.24,1.44-6.4,2-.47.13-1.08-.3-1.63-.48.32-.56.51-1.46,1-1.64a56.48,56.48,0,0,1,6.39-2C8,27.22,8.7,27.71,9.82,28.06Z"/><path class="cls-1" d="M23.63,42.55a24.63,24.63,0,0,1-.05,3.33c-.07.49-.66.91-1,1.36-.38-.42-1.07-.83-1.09-1.27q-.16-3.47,0-6.95c0-.47.65-.91,1-1.37.38.43,1,.82,1.08,1.29a27.16,27.16,0,0,1,.05,3.61Z"/><path class="cls-1" d="M8,20.14c-2.6-.87-5-1.62-7.35-2.51C.34,17.5.22,16.75,0,16.29c.53-.23,1.14-.74,1.58-.62,2.24.6,4.47,1.31,6.64,2.13a2,2,0,0,1,.84,1.47C9.09,19.54,8.35,19.88,8,20.14Z"/><path class="cls-1" d="M23.62,4.65a27.41,27.41,0,0,1-.06,3.63c-.06.46-.74.83-1.14,1.24-.32-.39-.91-.77-.93-1.16-.09-2.33-.11-4.67,0-7,0-.46.66-.91,1-1.36.38.43,1,.83,1.08,1.3A23.37,23.37,0,0,1,23.62,4.65Z"/></g></g></g></g></g></svg>