<svg xmlns="http://www.w3.org/2000/svg" viewBox="0 0 104.19 98.61"><defs><style>.cls-1{fill:#fff;}</style></defs><title>WeatherIcon2</title><g id="Layer_2" data-name="Layer 2"><g id="Layer_1-2" data-name="Layer 1"><path class="cls-1" d="M45.91,98.6c-9,0-18,.05-27.06,0-10-.07-17.34-6.47-18.68-16-1.28-9.17,4.65-17.47,14.15-20.3a7,7,0,0,0,4-3.43C27,38.46,51.08,33.56,67.14,48.85a8.12,8.12,0,0,0,5.09,2c14.29.09,24.83,10,24.91,23.79s-10.26,23.87-24.63,24C63.64,98.64,54.78,98.6,45.91,98.6ZM21.66,61.79c1.84.75,3.56,1.12,4.86,2.07s2.17,2.48,3.22,3.76c-1.56-.09-3.31.25-4.64-.34-5.79-2.55-11.78-1.89-16.28,2.11A14.45,14.45,0,0,0,4.66,84.85c2.19,6.06,6.65,9.82,13,9.91,19,.27,37.92.38,56.87,0,9.71-.2,17.2-7.68,18.69-17.19a20,20,0,0,0-12-21.15c-7.79-3.24-14.91-1.82-21.4,3.53-1,.8-2.54.87-3.83,1.27.46-1.4.51-3.23,1.45-4.11a61.43,61.43,0,0,1,6.85-5C51.49,37.56,28,42.8,21.66,61.79Z"/><path class="cls-1" d="M67.11,20.51c12.43-.05,21.44,12,17.61,23.7-.43,1.32-2,2.28-3,3.4-.21-1.47-.88-3-.57-4.39,1.84-8-1.66-15.31-8.82-18S57.77,25.65,53.82,33c-.61,1.13-2,1.87-3,2.79-.16-1.46-.87-3.13-.4-4.35C53,24.84,59.78,20.53,67.11,20.51Z"/><path class="cls-1" d="M69.11,8.13A34.51,34.51,0,0,1,69,13.61c-.12.81-1.17,1.47-1.8,2.21-.66-.71-1.84-1.39-1.88-2.13a112.13,112.13,0,0,1,0-11.45c0-.77,1.19-1.49,1.82-2.24C67.8.72,68.91,1.38,69,2.18A43.67,43.67,0,0,1,69.11,8.13Z"/><path class="cls-1" d="M102,52.17c-4.35-1.42-8-2.51-11.52-3.87-.69-.27-1-1.58-1.47-2.4.88-.38,1.9-1.25,2.62-1,3.65,1,7.26,2.18,10.8,3.52.76.29,1.18,1.48,1.76,2.26Z"/><path class="cls-1" d="M81,21.06c-.2-1.46-.86-2.9-.4-3.64A101.19,101.19,0,0,1,87.17,8.2c.49-.63,1.76-.63,2.67-.92.24.8.93,1.91.63,2.37-2.34,3.53-4.85,6.94-7.36,10.35C82.88,20.32,82.33,20.41,81,21.06Z"/><path class="cls-1" d="M46.09,31.64c-1.32.52-2.4,1.4-3.18,1.19-3.8-1-7.54-2.29-11.23-3.64a2.53,2.53,0,0,1-1.37-2c0-.58,1.28-1.67,1.71-1.54,4.21,1.21,8.37,2.6,12.52,4C45,29.85,45.25,30.56,46.09,31.64Z"/><path class="cls-1" d="M55.46,19c-1.77.57-3.48,1.44-3.71,1.15C49,16.6,46.34,12.85,43.82,9.06A20.63,20.63,0,0,1,46,7.19Z"/><path class="cls-1" d="M102.12,25.45c.54.39,1.85.89,1.9,1.5a2.9,2.9,0,0,1-1.48,2.32c-3.54,1.34-7.15,2.51-10.8,3.5-.75.2-1.77-.6-2.66-.93.44-.84.68-2.18,1.34-2.43C94.09,28,97.87,26.85,102.12,25.45Z"/></g></g></svg>