<svg xmlns="http://www.w3.org/2000/svg" viewBox="0 0 43.21 57.26"><defs><style>.cls-1{fill:#fff;}</style></defs><title>WeatherIcon6</title><g id="Layer_2" data-name="Layer 2"><g id="Layer_1-2" data-name="Layer 1"><path class="cls-1" d="M28.41,0c4,1.09,8,2.05,11.89,3.35,1.13.37,2,1.69,2.91,2.58a14.13,14.13,0,0,1-3.22,2C27.78,11.41,20.88,22.8,24.2,34.55c2.25,8,7.64,13,15.58,15.31a17.75,17.75,0,0,1,3.39,1.84c-1,1-1.86,2.32-3.07,2.91-10.14,5-22.9,2.8-31.3-5.14A28.52,28.52,0,0,1,2,18.44C6.25,7.67,16.59.65,28.41,0Zm7.1,52.38C25.66,47.12,20.07,39.75,20,28.93S25.87,10.64,35.39,5.37A24.29,24.29,0,0,0,8.28,14.3,24.56,24.56,0,0,0,8.2,43.46C14.32,51.91,24.84,55.58,35.51,52.38Z"/></g></g></svg>