<svg xmlns="http://www.w3.org/2000/svg" viewBox="0 0 97.22 75.48"><title>Asset 7</title><g id="Layer_2" data-name="Layer 2"><g id="Layer_1-2" data-name="Layer 1"><path d="M45.92,58.84c-8.86,0-17.73.06-26.6,0C9,58.73,1.31,52.19.15,42.7S4.76,25.18,14.71,22.3A6.49,6.49,0,0,0,18.32,19C27-1.42,51.18-6.36,67.09,9a8,8,0,0,0,5.06,2c13.89-.1,24.74,9.86,25.06,23.25C97.53,47.85,86.93,58.66,73,58.82,64,58.92,55,58.84,45.92,58.84Zm-24.45-37c2,.8,3.69,1.18,5,2.13a20.91,20.91,0,0,1,3.25,3.72c-1.58-.08-3.36.28-4.71-.31-5.79-2.52-11.78-1.83-16.29,2.21A14.47,14.47,0,0,0,4.62,45.07a14.07,14.07,0,0,0,13.16,9.76c19,.12,38,.39,57-.11C89.41,54.33,98,37.78,90.76,25,84.38,13.84,70.39,11.6,59.88,19.94c-1,.82-2.76.78-4.16,1.13.61-1.38.89-3.12,1.91-4.05a64.45,64.45,0,0,1,7-5c-7.22-7-15.32-9.79-24.86-7.38C30.63,7,24.71,12.82,21.47,21.83Z"/><path d="M47.93,65.31c-1.38,3.14-2.58,6.08-4,8.9a2.31,2.31,0,0,1-2.22.56,2.45,2.45,0,0,1-.9-2.19,70.05,70.05,0,0,1,3.33-8,2.6,2.6,0,0,1,2.13-1.13C46.86,63.58,47.34,64.62,47.93,65.31Z"/><path d="M65.48,65.37c-1.3,3-2.48,5.95-3.89,8.77a2.31,2.31,0,0,1-2.2.68,2.4,2.4,0,0,1-1-2.14,76.14,76.14,0,0,1,3.5-8.34c.26-.51,1.54-.8,2.28-.7C64.65,63.7,65,64.68,65.48,65.37Z"/><path d="M24.24,75.48c-.4-1-1.27-2.14-1-2.88a59,59,0,0,1,3.28-7.94,2.86,2.86,0,0,1,2.15-1.14c.43,0,1.42,1.16,1.3,1.48-1.18,3.23-2.52,6.41-3.89,9.57C25.92,74.88,25.29,75,24.24,75.48Z"/></g></g></svg>