<svg xmlns="http://www.w3.org/2000/svg" viewBox="0 0 74.61 77.46"><title>Asset 3</title><g id="Layer_2" data-name="Layer 2"><g id="Layer_1-2" data-name="Layer 1"><path d="M55.26,38.67A18.12,18.12,0,0,1,37,57,18.34,18.34,0,1,1,55.26,38.67Zm-3.71.14A14.89,14.89,0,0,0,36.93,24.1a14.81,14.81,0,0,0-14.6,14.23,14.86,14.86,0,0,0,14.36,15A14.86,14.86,0,0,0,51.55,38.81Z"/><path d="M24.58,18.22c-.69.92-1.06,1.86-1.54,1.92a3,3,0,0,1-2.35-.7q-3.63-4.65-6.92-9.55A2.71,2.71,0,0,1,14,7.52c.22-.38,1.68-.63,1.9-.36C18.8,10.74,21.63,14.43,24.58,18.22Z"/><path d="M71.76,25.35c.59.34,1.88.75,1.88,1.17,0,.85-.47,2.25-1.11,2.49q-5.5,2.11-11.2,3.68c-.7.19-1.71-.72-2.57-1.12.49-.82.81-2.11,1.51-2.37C63.94,27.81,67.71,26.67,71.76,25.35Z"/><path d="M14.66,70.83c-.38-1.08-1.36-2.5-1-3,2.31-3.54,4.86-6.94,7.49-10.25.32-.41,1.69-.33,2.36,0a2,2,0,0,1,.39,1.95c-2.49,3.6-5.11,7.11-7.72,10.63C16,70.32,15.65,70.37,14.66,70.83Z"/><path d="M50.84,20.73c-.37-1-1.18-2.21-.89-2.66,2.4-3.65,5-7.19,7.6-10.68a2,2,0,0,1,1.94-.2c.53.53,1.11,1.81.84,2.22-2.35,3.52-4.86,6.92-7.39,10.31C52.63,20.14,51.9,20.24,50.84,20.73Z"/><path d="M74.61,50.68c-1.48.49-2.56,1.26-3.38,1q-5.53-1.47-10.9-3.49c-.73-.27-1.06-1.57-1.57-2.39.71-.43,1.56-1.37,2.11-1.21,4,1.12,7.88,2.42,11.77,3.78C73.22,48.61,73.58,49.45,74.61,50.68Z"/><path d="M50.89,56.08a21,21,0,0,1,2.62,2.2c2.17,2.91,4.38,5.81,6.32,8.87.44.69-.13,2-.24,3.08-.91-.29-2.18-.29-2.67-.91a95.89,95.89,0,0,1-6.62-9.19C49.84,59.4,50.58,57.92,50.89,56.08Z"/><path d="M16.1,46c-1.5,1.29-2.07,2.1-2.83,2.36-3.46,1.21-6.94,2.36-10.48,3.3C2,51.87,1,51.16.11,50.88.64,50,1,48.49,1.72,48.19a93,93,0,0,1,10.47-3.33C13.1,44.63,14.26,45.43,16.1,46Z"/><path d="M38.74,69.77a39.74,39.74,0,0,1-.08,5.46c-.11.8-1.07,1.49-1.65,2.23-.62-.7-1.76-1.37-1.79-2.09Q35,69.69,35.22,64c0-.77,1.06-1.5,1.63-2.25.62.7,1.68,1.35,1.78,2.12a44.89,44.89,0,0,1,.09,5.92Z"/><path d="M13.16,33c-4.25-1.42-8.19-2.65-12-4.1C.55,28.7.36,27.47,0,26.7c.87-.36,1.87-1.21,2.59-1,3.68,1,7.32,2.15,10.89,3.5a3.2,3.2,0,0,1,1.38,2.4C14.9,32,13.69,32.6,13.16,33Z"/><path d="M38.73,7.63a45.34,45.34,0,0,1-.1,6c-.1.75-1.22,1.35-1.87,2-.53-.63-1.5-1.25-1.53-1.9-.15-3.82-.18-7.65,0-11.46,0-.77,1.08-1.5,1.66-2.24.62.71,1.65,1.35,1.77,2.14A38.59,38.59,0,0,1,38.73,7.63Z"/></g></g></svg>