<svg xmlns="http://www.w3.org/2000/svg" viewBox="0 0 97.22 89.82"><title>Asset 2</title><g id="Layer_2" data-name="Layer 2"><g id="Layer_1-2" data-name="Layer 1"><path d="M45.9,89.79c-8.86,0-17.73.06-26.6,0C9.07,89.69,1.35,83.11.15,73.59S4.86,56.08,14.81,53.26a6,6,0,0,0,3.42-3c9.32-21.11,32.59-25.83,49.25-10A7.43,7.43,0,0,0,72.23,42c14-.07,24.71,9.83,25,23.26C97.5,78.93,87,89.6,73,89.77,64,89.87,54.93,89.79,45.9,89.79Zm-24.37-37a31.38,31.38,0,0,1,5.27,2.32c1.22.84,2,2.28,3,3.46-1.57,0-3.34.42-4.67-.16-5.93-2.57-11.37-2.08-16.3,2.1A14.43,14.43,0,0,0,18.18,85.8c18.68.1,37.36.22,56,0,8.66-.12,14.75-4.88,17.83-12.9s1.21-15.42-4.92-21.46C79.59,44,68.9,44,59.65,51.17c-.95.73-2.54.64-3.83.94.44-1.28.52-3,1.4-3.77A82,82,0,0,1,64.56,43C57.06,35.69,48.65,33.1,39,35.83,30.32,38.28,24.56,44,21.53,52.75Z"/><path d="M70.3,5.14C62.55,6.68,57.2,16.29,57.91,23.71c.14,1.38-.7,2.86-1.09,4.29-.87-1.35-2.36-2.64-2.5-4.06C53.13,11.69,62.69.35,74.37,0c1.19,0,2.4.71,3.6,1.09a13.44,13.44,0,0,1-1.48,3.1c-5.51,6.46-6.5,13-2.84,19.34s10,8.93,18.55,7.31a11,11,0,0,1,3.3.44c-.24,1.12-.17,2.44-.77,3.32a16.29,16.29,0,0,1-4,4.36c-1.25.86-3.07.9-4.64,1.3.35-1.44.71-2.88,1.07-4.34C69.32,30.56,64.14,21.5,70.3,5.14Z"/></g></g></svg>