<svg xmlns="http://www.w3.org/2000/svg" viewBox="0 0 68.15 77.37"><defs><style>.cls-1{opacity:0.8;}.cls-2{fill:#188ab5;stroke:#fff;stroke-miterlimit:10;}</style></defs><title>NodeData (3)</title><g id="Layer_2" data-name="Layer 2"><g id="Layer_1-2" data-name="Layer 1"><g id="NodeData"><g id="ToolBar"><g id="DownToolBar"><g id="trashcanButton"><g id="trashCan" class="cls-1"><g id="icon"><path class="cls-2" d="M3.57,18.9h61q-.4,3.38-.82,6.7L61,47.9c-.79,6.37-1.63,12.72-2.38,19.09-.22,1.94-.38,3.86-1.49,5.54a8.76,8.76,0,0,1-7.54,4.29q-15.5.09-31,0a9.15,9.15,0,0,1-8.89-8.34c-.54-5.12-1.2-10.22-1.83-15.32Q6.49,42.11,5.09,31.05C4.58,27,4.08,23,3.57,18.9ZM24.86,67.65V28.09h-6V67.65Zm12.2,0V28.09h-6V67.64Zm12.22,0V28.09h-6V67.64Z"/><path class="cls-2" d="M24.81,6.65c.53-1.49,1-2.87,1.5-4.23A2.63,2.63,0,0,1,29.18.5c3.4.14,6.81.09,10.21,0a2.06,2.06,0,0,1,2.16,1.33C42.2,3.4,42.76,5,43.4,6.65H62.72a4.6,4.6,0,0,1,4.93,4.95v4.14H.56a50.45,50.45,0,0,1,0-5.22A4.44,4.44,0,0,1,5.18,6.65q9.3,0,18.6,0Z"/></g></g></g></g></g></g></g></g></svg>