<svg xmlns="http://www.w3.org/2000/svg" viewBox="0 0 55.28 62.86"><defs><style>.cls-1{fill:#fff;}</style></defs><title>NodeDataEdit (2)</title><g id="Layer_2" data-name="Layer 2"><g id="Layer_1-2" data-name="Layer 1"><g id="NodeDataEdit"><g id="ToolBar"><g id="UpToolBar"><g id="icon"><path class="cls-1" d="M2.53,15.15H52.75c-.23,1.85-.45,3.68-.68,5.51Q50.93,29.84,49.78,39c-.66,5.24-1.34,10.47-2,15.71a10,10,0,0,1-1.23,4.56,7.19,7.19,0,0,1-6.21,3.53q-12.75.07-25.51,0A7.52,7.52,0,0,1,7.56,56c-.45-4.21-1-8.41-1.51-12.61q-1.12-9.1-2.28-18.21C3.36,21.83,3,18.51,2.53,15.15ZM20.05,55.27V22.71H15.12V55.27Zm10.05,0V22.71H25.17V55.27Zm10,0V22.71H35.22V55.27Z"/><path class="cls-1" d="M20,5.06c.43-1.22.81-2.36,1.23-3.48A2.17,2.17,0,0,1,23.61,0c2.8.11,5.6.07,8.4,0a1.68,1.68,0,0,1,1.78,1.1c.53,1.27,1,2.57,1.52,3.94H51.22a3.79,3.79,0,0,1,4.06,4.07v3.42H.05a38.48,38.48,0,0,1,0-4.3A3.66,3.66,0,0,1,3.86,5.06H20Z"/></g></g></g></g></g></g></svg>