<svg xmlns="http://www.w3.org/2000/svg" viewBox="0 0 67.09 93.86"><defs><style>.cls-1{opacity:0.85;}.cls-2{fill:#37778e;}</style></defs><title>Asset 1</title><g id="Layer_2" data-name="Layer 2"><g id="Layer_1-2" data-name="Layer 1"><g class="cls-1"><path class="cls-2" d="M33.06,93.86a11.69,11.69,0,0,1-1.1-2,54.84,54.84,0,0,0-4.63-10.2q-3.09-5.3-6.54-10.37c-2.45-3.58-5.1-7-7.64-10.54A126.32,126.32,0,0,1,4,47c-2.13-4-3.92-8.06-4-12.64a41.46,41.46,0,0,1,.43-6.19A30,30,0,0,1,4,17.53,33.78,33.78,0,0,1,26.91.69C28.49.37,30.11.23,31.72,0h3.59c1.58.22,3.17.38,4.73.68A32.71,32.71,0,0,1,51.5,5.27a33.65,33.65,0,0,1,9.85,9.57A32.5,32.5,0,0,1,66.42,27a25.7,25.7,0,0,1-.11,12.08,40.06,40.06,0,0,1-4.2,9.32C59.32,53.11,56,57.45,52.76,61.9,49.11,67,45.51,72,42,77.22a64.56,64.56,0,0,0-6.65,13.36c-.25.67-.38,1.4-.68,2a6.91,6.91,0,0,1-.9,1.23Zm.4-34.79A26.33,26.33,0,1,0,7.2,32.69,26.36,26.36,0,0,0,33.46,59.07Z"/></g></g></g></svg>