<svg xmlns="http://www.w3.org/2000/svg" viewBox="0 0 65.82 74.86"><defs><style>.cls-1{fill:#754741;}</style></defs><title>NodeData (3)</title><g id="Layer_2" data-name="Layer 2"><g id="Layer_1-2" data-name="Layer 1"><g id="NodeData"><g id="ToolBar"><g id="DownToolBar"><g id="DownToolBar-2" data-name="DownToolBar"><g id="trashCan"><g id="icon"><path class="cls-1" d="M3,18H62.82c-.28,2.2-.54,4.38-.81,6.56L59.28,46.47c-.78,6.23-1.6,12.47-2.34,18.71a12,12,0,0,1-1.46,5.43,8.61,8.61,0,0,1-7.39,4.2q-15.2.09-30.38,0A9,9,0,0,1,9,66.63c-.53-5-1.18-10-1.8-15Q5.86,40.78,4.49,29.94C4,26,3.51,22,3,18ZM23.87,65.82V27.05H18V65.82Zm12,0V27H30V65.82Zm12,0V27H41.94V65.81Z"/><path class="cls-1" d="M23.83,6c.51-1.46,1-2.82,1.47-4.15A2.57,2.57,0,0,1,28.12,0c3.33.13,6.66.09,10,0a2,2,0,0,1,2.12,1.31c.63,1.51,1.19,3.06,1.81,4.7H43q9,0,18,0a4.5,4.5,0,0,1,4.83,4.85v4.06H.05a48.52,48.52,0,0,1,0-5.12A4.34,4.34,0,0,1,4.59,6q9.12,0,18.23,0Z"/></g></g></g></g></g></g></g></g></svg>