<svg xmlns="http://www.w3.org/2000/svg" viewBox="0 0 63.84 70.8"><defs><style>.cls-1{fill:#754741;}</style></defs><title>NodeData (4)</title><g id="Layer_2" data-name="Layer 2"><g id="Layer_1-2" data-name="Layer 1"><g id="NodeData"><g id="ToolBar"><g id="DownToolBar"><g id="DownToolBar-2" data-name="DownToolBar"><g id="pen"><g id="icon"><path class="cls-1" d="M23.67,51.71l-10.87-11L42.87,9.59,53.64,20.65Z"/><path class="cls-1" d="M28.47,70.79H4.16a8,8,0,0,1-1.83-.08A2.73,2.73,0,0,1,0,67.79a2.7,2.7,0,0,1,2.41-2.64,10.12,10.12,0,0,1,1.83-.07H54.09A2.84,2.84,0,1,1,54,70.77c-3.81,0-7.62,0-11.44,0Z"/><path class="cls-1" d="M56.88,18.44,45.73,7.13C47.56,5.23,49.49,3,51.7,1a4.24,4.24,0,0,1,5.8.3c1.77,1.6,3.45,3.3,5.06,5.06a4.46,4.46,0,0,1,.09,6.15C60.81,14.6,58.78,16.51,56.88,18.44Z"/><path class="cls-1" d="M2.77,61.06,9.48,43.23l10.75,11Z"/></g></g></g></g></g></g></g></g></svg>