<svg xmlns="http://www.w3.org/2000/svg" viewBox="0 0 53.39 59.21"><defs><style>.cls-1{opacity:0.8;}.cls-2{fill:#feffff;}</style></defs><title>NodeData (4)</title><g id="Layer_2" data-name="Layer 2"><g id="Layer_1-2" data-name="Layer 1"><g id="NodeData"><g id="ToolBar"><g id="UpToolBar" class="cls-1"><g id="penButton"><g id="pen"><g id="icon"><path class="cls-2" d="M19.8,43.24c-3.29-3.32-6.37-6.43-9.1-9.17L35.85,8l9,9.25Z"/><path class="cls-2" d="M23.81,59.2H3.48A6.45,6.45,0,0,1,2,59.13,2.28,2.28,0,0,1,0,56.69a2.24,2.24,0,0,1,2-2.2,7.88,7.88,0,0,1,1.54-.06H45.23a2.31,2.31,0,0,1,2.44,2.33,2.34,2.34,0,0,1-2.51,2.43c-3.19,0-6.38,0-9.57,0Z"/><path class="cls-2" d="M47.57,15.42,38.25,6c1.53-1.59,3.14-3.49,5-5.12a3.53,3.53,0,0,1,4.85.25C49.56,2.44,51,3.86,52.31,5.33a3.71,3.71,0,0,1,.08,5.14C50.85,12.21,49.15,13.81,47.57,15.42Z"/><path class="cls-2" d="M2.31,51.06,7.93,36.15l9,9.16Z"/></g></g></g></g></g></g></g></g></svg>