<svg xmlns="http://www.w3.org/2000/svg" viewBox="0 0 56.56 50.01"><defs><style>.cls-1{fill:#fff;}</style></defs><title>Asset 9</title><g id="Layer_2" data-name="Layer 2"><g id="Layer_1-2" data-name="Layer 1"><path class="cls-1" d="M56.81,47.72V49a2.76,2.76,0,0,1-2.62,1.29q-25.66-.06-51.32,0A2.75,2.75,0,0,1,.25,49V47.72c1-3.34,2-6.68,3-10S5.11,31.12,6,27.83c.43-1.51,1-1.92,2.62-1.93H21.41l-1.14-1.75a23.35,23.35,0,0,1-4-10.52A12.34,12.34,0,0,1,40.46,9.41c1,4.22,0,8.11-2,11.82-.81,1.54-1.77,3-2.77,4.67H48.14c2,0,2.39.32,2.92,2.18q2.73,9.56,5.48,19.11A3.78,3.78,0,0,0,56.81,47.72ZM36.28,46.36h16.1c-1-3.63-2-7.14-3.09-10.83C44.92,39.17,40.69,42.7,36.28,46.36ZM47.43,32.21c.76-.59.57-1.11.41-1.83-.2-.88-.79-.72-1.35-.72-4.26,0-8.53,0-12.8,0a2.54,2.54,0,0,0-2.07.86c-1.68,1.75-2.48,2.52-3.4,2.3-.71-.17-1.5-.95-2.82-2.33a2.39,2.39,0,0,0-1.95-.83c-4,0-8,0-11.93,0-2.14,0-2.14,0-2.65,2.17.39.1.79.21,1.19.28l17.7,3.21,12,2.2a2.05,2.05,0,0,0,1.91-.5C43.55,35.39,45.45,33.75,47.43,32.21ZM37.08,13.66A8.7,8.7,0,0,0,27,4.09c-5.17,1.07-8.06,5.79-6.74,11.11s4.6,9.18,8.26,13.15c.83-.91,1.58-1.69,2.27-2.52C33.78,22.24,36.38,18.46,37.08,13.66ZM30.57,46.2c2.09-1.72,4.17-3.46,6.47-5.38l-22.16-4v9.66h15A1.2,1.2,0,0,0,30.57,46.2ZM11,46.36c0-3.24,0-6.36,0-9.49a1.13,1.13,0,0,0-.6-.87,24.07,24.07,0,0,0-2.65-.43c-1,3.65-2,7.21-3.06,10.79Z" transform="translate(-0.25 -0.25)"/><path class="cls-1" d="M27,4.09a8.7,8.7,0,0,1,10.09,9.57c-.7,4.8-3.3,8.58-6.3,12.17-.69.83-1.44,1.61-2.27,2.52-3.66-4-7-7.93-8.26-13.15S21.82,5.16,27,4.09Zm6.64,8.51a5.1,5.1,0,1,0-10.2.05,5.1,5.1,0,0,0,10.2-.05Z" transform="translate(-0.25 -0.25)"/></g></g></svg>