<svg xmlns="http://www.w3.org/2000/svg" viewBox="0 0 85.53 85.53"><defs><style>.cls-1{fill:#4c9ac1;}.cls-2{fill:#fff;}</style></defs><title>Avatar</title><g id="Layer_2" data-name="Layer 2"><g id="Layer_1-2" data-name="Layer 1"><g id="Avatar"><circle class="cls-1" cx="42.77" cy="42.77" r="42.77"/><path class="cls-2" d="M69.22,67.28a2.38,2.38,0,0,1-.74,1.28,2,2,0,0,1-2.17.35A2.14,2.14,0,0,1,65,67.11,14.14,14.14,0,0,0,64.45,65c-2.58-7.8-7.77-13-15.66-15.25A22.61,22.61,0,0,0,20.73,66.26c-.1.38-.16.77-.25,1.16a2.11,2.11,0,0,1-4.13-.91,30.53,30.53,0,0,1,1.22-4.3A27,27,0,0,1,33.63,46.29a2.18,2.18,0,0,0,.23-.09,16,16,0,0,1-7.28-13.54,15.64,15.64,0,0,1,4.71-11.44,16.18,16.18,0,0,1,22.88-.06A16.21,16.21,0,0,1,56.61,41a16.29,16.29,0,0,1-5,5.16c.71.29,1.4.55,2.06.85A26.73,26.73,0,0,1,67.32,60.66a25.87,25.87,0,0,1,1.75,5.43c0,.18.1.36.15.54ZM42.76,44.7a12.06,12.06,0,1,0-12-12.06A12.06,12.06,0,0,0,42.76,44.7Z"/></g></g></g></svg>