<svg xmlns="http://www.w3.org/2000/svg" viewBox="0 0 47.56 48.5"><defs><style>.cls-1{fill:#fff;}</style></defs><title>BackToInitTool</title><g id="Layer_2" data-name="Layer 2"><g id="Layer_1-2" data-name="Layer 1"><g id="BackToInitTool"><g id="icon"><path class="cls-1" d="M46.56,43.76a2,2,0,0,1-.64,1.1c-.56.46-.2.58-.87.3a1.84,1.84,0,0,1-1.14-1.54,11.52,11.52,0,0,0-.46-1.84c-2.22-6.71-9.89-15-19.67-14.87a20.07,20.07,0,0,0-20,16c-.08.33-.13.67-.21,1-.22,1-.18,1.59-1.14,1.38A1.8,1.8,0,0,1,1.05,43.1a26.52,26.52,0,0,1,1-3.71,23.23,23.23,0,0,1,13.83-13.7l.2-.08A13.79,13.79,0,0,1,9.85,14a13.37,13.37,0,0,1,4.06-9.84A13.92,13.92,0,0,1,33.6,4.05a13.91,13.91,0,0,1,4,11.29,13.63,13.63,0,0,1-1.94,5.81,13.82,13.82,0,0,1-4.27,4.44c.61.25,1.21.48,1.78.74A23,23,0,0,1,44.92,38.06a21.31,21.31,0,0,1,1.51,4.68c0,.15.09.31.13.46Z"/><path class="cls-1" d="M23.78,2.76A11.18,11.18,0,1,1,12.61,13.93,11.16,11.16,0,0,1,23.78,2.76Z"/><path class="cls-1" d="M0,48.5C0,35,10.65,24.12,23.78,24.12S47.56,35,47.56,48.5"/></g></g></g></g></svg>