<svg xmlns="http://www.w3.org/2000/svg" viewBox="0 0 45.57 35.28"><defs><style>.cls-1{fill:#fff;}</style></defs><title>FavoriteTool</title><g id="Layer_2" data-name="Layer 2"><g id="Layer_1-2" data-name="Layer 1"><g id="FavoriteTool"><g id="heartIcon"><path class="cls-1" d="M22.78,6.7C23.4,5.88,24,5,24.63,4.27A11.85,11.85,0,0,1,34.31,0a11.23,11.23,0,0,1,11.12,10A13.51,13.51,0,0,1,42.9,20a34,34,0,0,1-7,7.23,71.2,71.2,0,0,1-12.68,8,.7.7,0,0,1-.7,0A68,68,0,0,1,7.78,25.56,25.46,25.46,0,0,1,1.57,18,12.55,12.55,0,0,1,2.29,4.71,10.44,10.44,0,0,1,9.92.14a12,12,0,0,1,7.27,1.13,13.51,13.51,0,0,1,5.42,5.18l.12.2Z"/></g></g></g></g></svg>