<svg xmlns="http://www.w3.org/2000/svg" viewBox="0 0 34.78 53.18"><defs><style>.cls-1{fill:#fff;}</style></defs><title>ItemSearchTool</title><g id="Layer_2" data-name="Layer 2"><g id="Layer_1-2" data-name="Layer 1"><g id="ItemSearchTool"><g id="icon"><path class="cls-1" d="M.62.36l3-.29V1.26c0,3.44,0,6.88,0,10.33,0,.7.14,1.31.89,1.56,1,.32,1.75-.33,1.75-1.52,0-3.58,0-7.16,0-10.74V0H9.76V1.19c0,3.44,0,6.89,0,10.33a2.13,2.13,0,0,0,.42,1.41,1.51,1.51,0,0,0,1.37.26,1.74,1.74,0,0,0,.78-1.26c.06-3.54,0-7.09,0-10.63V.06c1,.09,1.83.13,2.66.28a.92.92,0,0,1,.55.66C15.76,6,16,11,16,16a5.81,5.81,0,0,1-2.61,4.92,17.15,17.15,0,0,1-1.87,1.28,2.77,2.77,0,0,0-1.37,3.14c.6,4.5,1.28,9,1.66,13.51.33,3.9.43,7.85-.76,11.67C10.65,51.84,10,53,8.31,53.16a2.46,2.46,0,0,1-2.82-1.59A22.77,22.77,0,0,1,4.34,46.9c-.58-4.55-.07-9.07.48-13.58.35-2.84.67-5.67,1.07-8.5a2.44,2.44,0,0,0-1.18-2.53c-1-.67-1.92-1.34-2.8-2.09A5.31,5.31,0,0,1,0,16C.1,10.94.32,5.89.49.83A3.2,3.2,0,0,1,.62.36Z"/><path class="cls-1" d="M24.8.19c3.73,0,6.55,1.44,8.08,4.75,2.21,4.8,2.24,9.87,1.37,15-.39,2.29-2.09,3.91-3.5,5.64-1,1.23-2.1,2.45-2.11,4.14a9.16,9.16,0,0,0,.47,3.12,30.74,30.74,0,0,1,1.33,12.63,34.9,34.9,0,0,1-.75,5.19c-.41,1.88-1.36,2.57-3.08,2.57a2.74,2.74,0,0,1-3.05-2.49,46.57,46.57,0,0,1-.84-6.43,69.72,69.72,0,0,1,1-14A130.19,130.19,0,0,0,24.8,11.55c0-3.37,0-6.74,0-10.12C24.81,1,24.8.63,24.8.19Z"/></g></g></g></g></svg>