<svg xmlns="http://www.w3.org/2000/svg" viewBox="0 0 50.18 49.34"><defs><style>.cls-1{fill:#fff;}</style></defs><title>LogoutTool</title><g id="Layer_2" data-name="Layer 2"><g id="Layer_1-2" data-name="Layer 1"><g id="LogoutTool"><g id="icon"><path class="cls-1" d="M11.76,19.42v-.31c0-1,0-2,0-3,0-.5,0-1-.05-1.51a.92.92,0,0,0-1.35-.72c-.21.12-.42.24-.61.37-.93.66-1.87,1.31-2.79,2-2.2,1.64-4.38,3.29-6.58,4.92a.87.87,0,0,0,0,1.39l.23.19c2.3,1.69,4.59,3.38,6.9,5.05.92.67,1.86,1.33,2.82,1.94a.88.88,0,0,0,1.44-.79c0-1.43,0-2.87,0-4.3v-.32h.29l9.62-.06a.75.75,0,0,0,.3,0,2.48,2.48,0,0,0,1.64-2.76,2.3,2.3,0,0,0-1.56-1.88c-.41,0-.83-.11-1.24-.12l-8.68,0Z"/><path class="cls-1" d="M50.18,34c0,.14,0,.27,0,.41,0,1.65,0,3.29-.07,4.94a1.67,1.67,0,0,1-1,1.41L45.9,42.55,35.05,48.66c-.31.18-.63.34-.95.5a1.66,1.66,0,0,1-2-.41,1.38,1.38,0,0,1-.38-1c0-2.17,0-4.34-.05-6.5V41l-.3,0-12.6-.06c-.52,0-1,0-1.56,0a1.62,1.62,0,0,1-1.31-.68,1.4,1.4,0,0,1-.34-1c0-3.7,0-7.41,0-11.11v-.35H19V37.4H31.64v-.33c0-7.87,0-15.74,0-23.61,0-1.2.09-2.4.15-3.6A1.6,1.6,0,0,1,32,9.17a1.17,1.17,0,0,1,.43-.48l7.46-4.22c.51-.29,1-.59,1.52-.92-7.46-.16-14.91-.1-22.39-.12V16H15.53v-.25l0-13.31c0-.34,0-.67,0-1A1.3,1.3,0,0,1,16.88.09C18.44,0,20,0,21.57,0H45.33c1.17,0,2.35.07,3.52.14a1.33,1.33,0,0,1,1.22,1.36c0,2,0,4.07.07,6.1,0,.65,0,1.31,0,2Z"/><path class="cls-1" d="M11.76,19.42h.37l8.68,0c.41,0,.83.07,1.24.12a2.3,2.3,0,0,1,1.56,1.88A2.48,2.48,0,0,1,22,24.22a.75.75,0,0,1-.3,0l-9.62.06h-.29v.32c0,1.43,0,2.87,0,4.3a.88.88,0,0,1-1.44.79c-1-.61-1.9-1.27-2.82-1.94-2.31-1.67-4.6-3.36-6.9-5.05l-.23-.19a.87.87,0,0,1,0-1.39c2.2-1.63,4.38-3.28,6.58-4.92.92-.68,1.86-1.33,2.79-2,.19-.13.4-.25.61-.37a.92.92,0,0,1,1.35.72c0,.51.05,1,.05,1.51,0,1,0,2,0,3Z"/></g></g></g></g></svg>