<svg xmlns="http://www.w3.org/2000/svg" viewBox="0 0 52.06 42.39"><defs><style>.cls-1{fill:#fff;}</style></defs><title>AddNodeTool</title><g id="Layer_2" data-name="Layer 2"><g id="Layer_1-2" data-name="Layer 1"><g id="AddNodeTool"><g id="icon"><path class="cls-1" d="M52.32,38a4.24,4.24,0,0,1-4.58,4.6c-12.62-.08-25.24,0-37.87,0a3.86,3.86,0,0,1-4-2.66,8.29,8.29,0,0,1-.2-1c.61,0,1.2-.09,1.73-.09a2.67,2.67,0,0,1,.91.13c3.72,1.26,7.53.46,11.29.53,9.35.14,18.69,0,28.05,0,1.49,0,1.61-.11,1.61-1.58V10c0-.63.14-1.31-.6-1.71-.09-.05-.11-.31-.11-.47,0-.82,0-1.64,0-2.45a3.65,3.65,0,0,1,3.67,3.19c0,.4,0,.82,0,1.22C52.28,19.22,52.21,28.63,52.32,38Z" transform="translate(-0.25 -0.25)"/><path class="cls-1" d="M47.72,33.84a4.21,4.21,0,0,1-4.44,4.39c-6.43-.07-12.86,0-19.29,0H4.7C1.8,38.2.26,36.68.26,33.78q0-14.57,0-29.11C.26,1.8,1.77.28,4.63.27c12.89,0,25.78,0,38.66,0a4.19,4.19,0,0,1,4.43,4.39v.75Q47.61,19.61,47.72,33.84Zm-3.06-.2V4.88c0-1.33-.19-1.53-1.5-1.53H4.76c-1.26,0-1.47.2-1.47,1.47V33.66c0,1.24.19,1.44,1.42,1.44H43.18C44.47,35.1,44.66,34.91,44.66,33.64Z" transform="translate(-0.25 -0.25)"/><path class="cls-1" d="M41.33,21.28c0,3.36,0,6.72,0,10.08a3.18,3.18,0,0,1-.06.47H6.62c0-1.54,0-3.08,0-4.61,0-.14.17-.29.29-.41l7.46-7.49,3.9,4L31,10.45c1.78,1.79,3.36,3.39,4.95,5s3.27,3.26,4.89,4.91A1.57,1.57,0,0,1,41.33,21.28Z" transform="translate(-0.25 -0.25)"/><path class="cls-1" d="M11.29,6.62A4.6,4.6,0,0,1,16,11.36,4.58,4.58,0,0,1,11.29,16,4.6,4.6,0,0,1,6.6,11.27,4.61,4.61,0,0,1,11.29,6.62Z" transform="translate(-0.25 -0.25)"/></g></g></g></g></svg>