<svg xmlns="http://www.w3.org/2000/svg" viewBox="0 0 54.84 54.84"><defs><style>.cls-1{fill:#fff;}.cls-2{fill:none;}</style></defs><title>shareTool</title><g id="Layer_2" data-name="Layer 2"><g id="Layer_1-2" data-name="Layer 1"><g id="shareTool"><g id="icon"><path class="cls-1" d="M0,39.49c.05-.58.1-1.17.16-1.75A27.06,27.06,0,0,1,3.88,26.53,26.41,26.41,0,0,1,16.6,15.46a23.15,23.15,0,0,1,7.49-1.81c1.43-.1,2.87-.06,4.3-.08h.21v-.33c0-2.76,0-5.51,0-8.26a4.31,4.31,0,0,1,.23-1.42,2.05,2.05,0,0,1,2.9-1.13,4.59,4.59,0,0,1,1,.61q10.38,8.28,20.73,16.58a3.4,3.4,0,0,1,1.35,2.18l.05.06v.73c-.05.17-.08.35-.14.51a3.45,3.45,0,0,1-1.19,1.72L36.24,38.63l-3.61,2.88a3.29,3.29,0,0,1-1.37.72,2.08,2.08,0,0,1-2.54-1.69,4.89,4.89,0,0,1-.11-1.08q0-3.85,0-7.72v-.39H26.74A23.67,23.67,0,0,0,4.93,45.1a37.93,37.93,0,0,0-2,5.77c-.17.58-.35,1.15-.53,1.76,0-.05-.07-.07-.08-.1-.55-1.93-1.13-3.86-1.64-5.8a21.48,21.48,0,0,1-.61-4.45c0-.11,0-.22,0-.33Z"/><path class="cls-1" d="M51.92,21.59c.57.46.57.86,0,1.32L40.34,32.17l-9,7.18-.25.19V29c-.38,0-.72-.05-1.06-.05-1.77,0-3.54-.1-5.31,0A23.63,23.63,0,0,0,16,31,26.28,26.28,0,0,0,2.92,43.56l-.18.36H2.67c-.06-.78-.14-1.57-.16-2.35a24.64,24.64,0,0,1,9.43-20.5A22.53,22.53,0,0,1,22.19,16.4a30.83,30.83,0,0,1,6.72-.32c.72,0,1.44,0,2.19,0V5a1.85,1.85,0,0,1,.23.15Z"/><rect class="cls-2" width="54.84" height="54.84"/></g></g></g></g></svg>